# xmcd
#
# Track frame offsets:
#	150
#	9587
#	21256
#	32323
#	45378
#	57152
#	68597
#	79774
#	92576
#	104106
#	114195
#	127760
#
# Disc length: 1869 seconds
#
# Revision: 0
# Processed by: cddbd v1.5.2PL0 Copyright (c) Steve Scherf et al.
# Submitted via: EasyCDDAExtractor 16.0.1.1
#
DISCID=85074b0c
DTITLE=Rose Maddox - Alone With You
DYEAR=196
DGENRE=Country
TTITLE0=Alone With You
TTITLE1=Let Those Brown Eyes Smile At Me
TTITLE2=If You See My Baby
TTITLE3=Long Black Limousine
TTITLE4=From A Beggar To A Queen
TTITLE5=Long Journey Home
TTITLE6=Stop The World (And Let Me Off)
TTITLE7=Curly Joe
TTITLE8=When The Sun Goes Down
TTITLE9=My Life Has Been A Pleasure
TTITLE10=Johnny's Last Kiss
TTITLE11=White Lightning
EXTD=
EXTT0=
EXTT1=
EXTT2=
EXTT3=
EXTT4=
EXTT5=
EXTT6=
EXTT7=
EXTT8=
EXTT9=
EXTT10=
EXTT11=
PLAYORDER=
